<svg width="68" height="68" xmlns="http://www.w3.org/2000/svg" xmlns:xlink="http://www.w3.org/1999/xlink"><defs><circle id="a" cx="34" cy="34" r="34"/><path d="M12.6 25.2C5.641 25.2 0 19.559 0 12.6S5.641 0 12.6 0s12.6 5.641 12.6 12.6-5.641 12.6-12.6 12.6zm0-2.043c5.83 0 10.557-4.727 10.557-10.557S18.43 2.043 12.6 2.043 2.043 6.77 2.043 12.6 6.77 23.157 12.6 23.157z" id="c"/><path d="M19.907 21.39a1.049 1.049 0 0 1 1.483-1.483L33.293 31.81a1.049 1.049 0 0 1-1.483 1.483L19.907 21.39z" id="e"/></defs><g fill="none" fill-rule="evenodd"><g><mask id="b" fill="#ffffff"><use xlink:href="#a"/></mask><use fill="#ffffff" xlink:href="#a"/><g mask="url(#b)"><path fill="#ffffff" d="M0 0h68v68H0z"/><path fill="#ffffff" d="M0 0h68v68H0z"/></g></g><g transform="translate(17 17)"><mask id="d" fill="#ffffff"><use xlink:href="#c"/></mask><use fill="#ffffff" fill-rule="nonzero" xlink:href="#c"/><g mask="url(#d)" fill="#ffffff"><path d="M0 0h35v35H0z"/></g><mask id="f" fill="#ffffff"><use xlink:href="#e"/></mask><use fill="#ffffff" fill-rule="nonzero" xlink:href="#e"/><g mask="url(#f)" fill="#ffffff"><path d="M0 0h35v35H0z"/></g></g></g></svg>